<svg xmlns="http://www.w3.org/2000/svg" xmlns:xlink="http://www.w3.org/1999/xlink" version="1.1" x="0px" y="0px" viewBox="0 0 100 100" enable-background="new 0 0 100 100" xml:space="preserve"><circle cx="62.458" cy="57.527" r="2.167"/><circle cx="35.542" cy="57.527" r="2.167"/><path d="M93.741,50.14c-1.507-6.536-10.022-11.955-15.797-14.951c0.007-0.163,0.024-0.323,0.024-0.487  c0-3.957-2.169-7.58-5.499-9.519c0.153-0.73,0.23-1.476,0.23-2.231c0-6.066-4.935-11.001-11.001-11.001  c-1.792,0-3.531,0.435-5.089,1.252c-2.059-2.503-5.159-4.017-8.495-4.017c-3.257,0-6.315,1.45-8.384,3.886  c-0.827-0.197-1.674-0.297-2.535-0.297c-6.066,0-11.001,4.935-11.001,11.001c0,0.07,0,0.141,0.002,0.211  c-4.867,1.134-8.503,5.508-8.503,10.715c0,0.958,0.136,1.882,0.367,2.768c-5.095,3.123-10.572,7.553-11.751,12.67  c-0.493,2.141-0.456,5.39,2.525,8.716c1.819,2.029,3.808,3.058,5.911,3.058c2.533,0,4.78-1.562,6.738-3.943  c1.734,16.25,13.286,28.851,27.244,28.851c14.943,0,27.13-14.442,27.461-32.344c2.442,4.237,5.487,7.437,9.117,7.437  c2.103,0,4.092-1.029,5.911-3.058C94.197,55.53,94.234,52.28,93.741,50.14z M86.673,56.113c-0.044,0.106-0.123,0.219-0.181,0.328  c-0.384,0.276-0.794,0.473-1.188,0.473c-2.01,0-5.195-4.582-8.003-12.065C84.213,49.271,87.766,53.475,86.673,56.113z   M28.747,28.705c0.003,0,0.006,0,0.009,0l3.704,0.168l-1.01-3.372c-0.169-0.565-0.255-1.146-0.255-1.726  c0-3.309,2.692-6.001,6.001-6.001c0.853,0,1.684,0.181,2.471,0.538l2.09,0.949l1.123-2.002c1.064-1.896,3.069-3.074,5.235-3.074  c2.373,0,4.527,1.406,5.488,3.581l1.425,3.224l2.571-2.411c1.121-1.051,2.576-1.629,4.099-1.629c3.309,0,6.001,2.692,6.001,6.001  c0,0.876-0.193,1.732-0.573,2.542l-1.234,2.63l2.785,0.828c2.526,0.75,4.29,3.115,4.29,5.75c0,3.309-2.692,6.001-6.002,6.001  c-1.203,0-2.363-0.354-3.354-1.024l-1.979-1.338l-1.426,1.917c-1.149,1.544-2.903,2.429-4.812,2.429  c-1.614,0-3.13-0.634-4.268-1.785l-2.169-2.195l-1.697,2.578c-1.117,1.697-2.992,2.71-5.014,2.71c-2.492,0-4.687-1.507-5.591-3.838  l-1.299-3.352l-2.69,2.385c-1.102,0.977-2.512,1.514-3.972,1.514c-3.309,0-6.001-2.692-6.001-6.001  C22.693,31.395,25.381,28.705,28.747,28.705z M13.376,56.114c-1.055-2.547,2.21-6.552,8.654-10.805  c-0.13,0.726-0.242,1.451-0.34,2.176c-2.521,5.905-5.186,9.429-6.946,9.429c-0.393,0-0.804-0.197-1.188-0.473  C13.499,56.332,13.42,56.22,13.376,56.114z M11.181,51.265c0.72-3.131,4.75-6.548,9.23-9.347c0.388,0.445,0.805,0.864,1.259,1.242  c-4.382,2.804-9.287,6.688-10.306,10.514C10.964,52.674,11.043,51.861,11.181,51.265z M48.536,76.785l-1.697-1.959h3.395  L48.536,76.785z M49.536,81.795v-3.109l3.643-4.205c0.256-0.296,0.316-0.714,0.154-1.07s-0.518-0.584-0.91-0.584h-7.773  c-0.392,0-0.747,0.229-0.91,0.584s-0.103,0.774,0.154,1.07l3.642,4.205v3.095C35.693,81.004,26.25,68.721,26.25,53.732  c0-1.594,0.125-3.235,0.329-4.891c0.436-1.062,0.842-2.131,1.216-3.184c0.298,0.024,0.597,0.045,0.9,0.045  c1.662,0,3.287-0.378,4.763-1.09c2.039,2.728,5.249,4.381,8.789,4.381c2.795,0,5.435-1.053,7.441-2.901  c1.703,1.039,3.661,1.593,5.707,1.593c2.718,0,5.34-1.029,7.344-2.825c1.331,0.555,2.762,0.842,4.228,0.842  c1.157,0,2.272-0.182,3.321-0.515c0.592,2.892,0.916,5.782,0.916,8.544C71.204,68.881,61.556,81.26,49.536,81.795z M88.687,53.672  c-1.19-4.463-7.669-9.005-12.434-11.819c-0.093-0.282-0.184-0.569-0.275-0.858c0.2-0.286,0.387-0.582,0.56-0.886  c5.572,3.032,11.447,7.312,12.332,11.157C89.006,51.86,89.086,52.673,88.687,53.672z"/></svg>